<svg width="75" height="75" fill="none" xmlns="http://www.w3.org/2000/svg"><circle cx="49" cy="26" r="26" fill="#FFEFC7"/><g clip-path="url(#clip0)" fill="#2D2D2D"><path d="M35 74.926c-19.3 0-35-15.46-35-34.463S15.7 6 35 6s35 15.46 35 34.463c0 19.004-15.7 34.463-35 34.463zm0-66.054c-17.69 0-32.083 14.173-32.083 31.591C2.917 57.882 17.31 72.055 35 72.055c17.69 0 32.083-14.174 32.083-31.592S52.69 8.872 35 8.872z"/><path d="M51.041 57.695c-.373 0-.747-.14-1.032-.419L33.966 41.48a1.435 1.435 0 01-.426-1.016v-21.54c0-.792.653-1.436 1.458-1.436.805 0 1.459.644 1.459 1.436V39.87l15.616 15.377c.568.56.568 1.47 0 2.03-.286.279-.66.42-1.033.42z"/></g><defs><clipPath id="clip0"><path fill="#fff" transform="translate(0 6)" d="M0 0h70v68.926H0z"/></clipPath></defs></svg>