<svg width="21" height="21" fill="none" xmlns="http://www.w3.org/2000/svg"><path d="M16.597 13.009c-.43-.448-.949-.687-1.498-.687-.545 0-1.068.235-1.516.683l-1.4 1.396c-.116-.062-.231-.12-.342-.178-.16-.08-.31-.155-.439-.235-1.311-.833-2.504-1.919-3.647-3.324-.554-.7-.927-1.29-1.197-1.888.363-.332.7-.678 1.028-1.01l.373-.377c.93-.93.93-2.136 0-3.067l-1.21-1.21c-.138-.138-.28-.28-.413-.421a20.93 20.93 0 00-.833-.825c-.43-.425-.944-.651-1.485-.651-.54 0-1.063.226-1.507.651l-.008.01-1.507 1.52a3.243 3.243 0 00-.962 2.06c-.107 1.295.275 2.5.567 3.29.718 1.936 1.79 3.731 3.39 5.655 1.942 2.318 4.278 4.148 6.946 5.438 1.02.483 2.38 1.055 3.9 1.152.094.005.191.01.28.01 1.023 0 1.883-.369 2.557-1.1.004-.009.013-.013.018-.022.23-.28.496-.532.775-.802.19-.182.386-.373.577-.572.438-.457.669-.988.669-1.534 0-.55-.235-1.077-.683-1.52l-2.433-2.442zm1.587 4.667c-.005 0-.005.004 0 0-.173.186-.35.355-.541.54-.288.275-.58.564-.855.887-.448.479-.976.705-1.667.705-.066 0-.137 0-.204-.005-1.316-.084-2.54-.598-3.457-1.037a19.687 19.687 0 01-6.542-5.123c-1.511-1.822-2.522-3.506-3.191-5.314-.412-1.104-.563-1.964-.496-2.775.044-.519.243-.949.611-1.316l1.512-1.512c.217-.204.447-.314.673-.314.28 0 .506.168.647.31l.014.013c.27.253.527.514.797.793l.422.43 1.21 1.21c.47.47.47.905 0 1.374-.129.129-.253.257-.382.382a23.13 23.13 0 01-1.112 1.081c-.009.009-.018.013-.022.022-.381.381-.31.754-.23 1.006l.013.04c.314.762.757 1.48 1.431 2.336l.005.004c1.223 1.507 2.513 2.682 3.935 3.582.182.115.368.208.545.296.16.08.31.156.44.235.017.01.035.023.053.031a.96.96 0 00.438.111c.368 0 .599-.23.674-.306l1.516-1.515c.15-.151.39-.333.669-.333.275 0 .5.173.638.324l.01.009 2.441 2.442c.457.452.457.917.005 1.387zm-6.835-12.68a5.62 5.62 0 013.058 1.586 5.65 5.65 0 011.587 3.059.595.595 0 00.59.496c.035 0 .066-.005.101-.009a.599.599 0 00.492-.691 6.836 6.836 0 00-1.919-3.701 6.836 6.836 0 00-3.7-1.92.601.601 0 00-.692.488.592.592 0 00.483.692zm9.627 4.268a11.247 11.247 0 00-3.16-6.095A11.246 11.246 0 0011.72.01a.596.596 0 00-.687.488.601.601 0 00.492.691 10.07 10.07 0 015.448 2.823 10.04 10.04 0 012.823 5.448.595.595 0 00.59.496.587.587 0 00.59-.691z" fill="#FCD127"/></svg>