<svg width="169" height="92" fill="none" xmlns="http://www.w3.org/2000/svg"><path fill="#2D2D2D" d="M0 0h169v91.385H0z"/><path d="M6.786 72.398l-.558 1.949 14.596-.012c.519 0 .778.181.778.544 0 .089-.017.19-.052.303l-.363 1.21c-.155.565-.553.847-1.193.847H5.722c-1.894 0-2.841-.686-2.841-2.057 0-.355.065-.759.194-1.21l1.739-6.051c.623-2.178 2.128-3.268 4.515-3.268h14.297c.51 0 .766.178.766.533 0 .089-.018.19-.052.302l-.363 1.223c-.165.564-.567.847-1.207.847H8.161l-.558 1.936h14.61c.518 0 .778.181.778.544 0 .09-.018.19-.052.303l-.338 1.21c-.164.565-.57.847-1.22.847H6.787zm20.875-4.852l-.57 1.948h12.312l.57-1.936-12.312-.012zm-1.388 4.852l-.57 1.937h12.311l.571-1.937H26.273zM25.002 65.5c.155-.564.562-.847 1.22-.847H40.48c1.885 0 2.828.686 2.828 2.058 0 .355-.065.758-.195 1.21l-.168.605c-.381 1.299-.952 2.106-1.713 2.42.355.194.532.565.532 1.113 0 .364-.074.8-.22 1.307l-.182.606c-.623 2.178-2.124 3.267-4.502 3.267H22.6c-.519-.008-.778-.194-.778-.557 0-.089.013-.185.039-.29l3.14-10.892zm22.12 2.046l-.921 3.158h12.312l.922-3.146-12.313-.012zm-2.66-2.046c.165-.564.567-.847 1.207-.847h14.272c1.885 0 2.828.686 2.828 2.058 0 .355-.065.758-.195 1.21l-.713 2.42c-.623 2.178-2.124 3.267-4.502 3.267H45.37l-.805 2.784c-.155.565-.558.847-1.206.847h-1.298c-.519 0-.778-.186-.778-.557 0-.08.013-.177.039-.29l3.14-10.892zm22.121 2.046l-1.946 6.788 12.312.013 1.96-6.79-12.326-.011zm12.819-2.893c1.885 0 2.828.686 2.828 2.058 0 .355-.065.758-.195 1.21l-1.738 6.05c-.623 2.179-2.124 3.268-4.502 3.268H64.118c-1.885 0-2.828-.686-2.828-2.057 0-.355.065-.759.194-1.21l1.739-6.051c.623-2.178 2.128-3.268 4.515-3.268H79.4zm5.176 7.951l-1.09 3.788c-.155.565-.558.847-1.206.847h-1.298c-.519 0-.778-.186-.778-.557 0-.08.013-.177.039-.29l3.126-10.88c.174-.564.58-.847 1.22-.847h1.297c.52 0 .779.182.779.545 0 .089-.017.19-.052.303l-1.077 3.775c-.052.04-.078.073-.078.097v.012c0 .008.005.012.013.012.078 0 .264-.06.558-.181l10.795-4.575h6.357l-14.622 6.293 11.015 6.293h-6.357l-8.174-4.575c-.225-.12-.376-.181-.454-.181a.042.042 0 00-.039.024.27.27 0 00.026.097z" fill="#fff"/><path d="M105.505 67.546l-.921 3.158h12.312l.921-3.146-12.312-.012zm-2.66-2.046c.165-.564.567-.847 1.207-.847h14.271c1.886 0 2.829.686 2.829 2.058 0 .355-.065.758-.195 1.21l-.713 2.42c-.623 2.178-2.124 3.267-4.502 3.267h-11.988l-.805 2.784c-.155.565-.558.847-1.206.847h-1.298c-.519 0-.778-.186-.778-.557 0-.08.013-.177.039-.29l3.139-10.892zm21.965 9.319l-2.439 2.42h-3.658l10.781-10.637c1.289-1.3 2.539-1.949 3.75-1.949 1.21 0 2.097.65 2.659 1.949l4.658 10.637h-3.659l-1.064-2.42H124.81zm9.757-2.905l-2.05-4.695-4.748 4.695h6.798zm11.067.484l-1.155 3.994c-.156.565-.558.847-1.207.847h-1.297c-.519 0-.778-.186-.778-.557 0-.08.013-.177.039-.29l3.191-11.134h.013c.113-.403.493-.605 1.142-.605h1.297c.519 0 .779.186.779.557 0 .08-.013.178-.039.29l-1.155 3.994h12.325l1.22-4.236h.013c.112-.403.493-.605 1.142-.605h1.297c.519 0 .778.186.778.557 0 .08-.013.178-.038.29l-3.14 10.892c-.156.565-.558.847-1.207.847h-1.297c-.519 0-.779-.186-.779-.557 0-.08.013-.177.039-.29l1.155-3.994h-12.338z" fill="#fff"/><path fill-rule="evenodd" clip-rule="evenodd" d="M114.349 33.453c0 10.741-13.879 19.448-31 19.448-17.12 0-30.998-8.707-30.998-19.448 0-10.74 13.879-19.448 30.999-19.448 17.12 0 30.999 8.707 30.999 19.448zM101.683 45.57h-5.345l-12.714-7.115c-.35-.188-.586-.282-.707-.282a.065.065 0 00-.06.038.41.41 0 00.04.15l-1.695 5.891c-.242.879-.868 1.318-1.877 1.318h-2.018c-.808 0-1.211-.289-1.211-.866 0-.126.02-.276.06-.452l1.344-4.674H57.81c1.268 1.805 3.11 3.507 5.508 5.012 4.98 3.124 12.052 5.159 20.032 5.159 7.11 0 13.502-1.616 18.333-4.18zM64.21 21.782c4.916-2.82 11.626-4.623 19.14-4.623 7.98 0 15.052 2.034 20.032 5.159 1.798 1.128 3.283 2.366 4.448 3.676h-5.881L85.157 33.11c-.457.188-.746.282-.867.282-.014 0-.02-.006-.02-.019v-.018c0-.038.04-.088.12-.151l1.676-5.872c.053-.176.08-.333.08-.47 0-.566-.403-.848-1.21-.848h-2.019c-.995 0-1.628.44-1.897 1.318l-.372 1.296H60.276l.789-2.738h20.659c.905 0 1.474-.4 1.706-1.198l.514-1.728a1.48 1.48 0 00.073-.428c0-.502-.36-.753-1.082-.753H64.21zm44.644 5.496l-19.761 8.504 14.819 8.465c4.654-3.084 7.055-6.937 7.055-10.794 0-2.1-.712-4.2-2.113-6.175zM59.12 32.733l-.789 2.755 20.35-.017.786-2.738H59.12z" fill="#fff"/></svg>