<svg width="80" height="75" fill="none" xmlns="http://www.w3.org/2000/svg"><circle cx="54" cy="26" r="26" fill="#FFEFC7"/><g clip-path="url(#clip0)" fill="#2D2D2D"><path d="M.221 11.421l4.669 8.17c.157.276.42.475.73.553l4.354 1.089L24.913 36.17l1.65-1.65-15.172-15.172a1.164 1.164 0 00-.541-.307l-4.185-1.05-3.975-6.96 3.408-3.407 6.962 3.978 1.05 4.185c.051.206.158.393.307.543L29.59 31.503l1.65-1.65-14.938-14.939-1.089-4.353a1.169 1.169 0 00-.553-.73l-8.17-4.67a1.167 1.167 0 00-1.4.188L.421 10.018c-.375.37-.457.944-.2 1.403zM48.742 28L23.069 53.677l-1.651-1.65L47.092 26.35l1.65 1.65zM18.573 54.585a1.167 1.167 0 00-1-.566H10.57c-.41 0-.789.214-1 .566l-3.5 5.835c-.223.37-.223.832 0 1.202l3.5 5.835c.211.35.59.566 1 .566h7.003c.41 0 .789-.215 1-.566l3.5-5.835c.223-.37.223-.833 0-1.202l-3.5-5.835zm-1.66 11.104H11.23l-2.8-4.668 2.8-4.669h5.682l2.8 4.669-2.8 4.668z"/><path d="M56.085 33.011c7.708.026 13.978-6.201 14.004-13.91a13.965 13.965 0 00-.429-3.478 1.167 1.167 0 00-1.957-.544l-7.265 7.26-5.764-1.921-1.922-5.763 7.265-7.266a1.167 1.167 0 00-.548-1.958c-7.475-1.893-15.068 2.631-16.961 10.106a13.929 13.929 0 00-.428 3.47c.003.919.098 1.835.284 2.734L16.805 47.3c-.9-.186-1.815-.28-2.734-.284-7.735 0-14.005 6.27-14.005 14.005 0 7.734 6.27 14.004 14.005 14.004 7.735 0 14.005-6.27 14.005-14.004a13.735 13.735 0 00-.284-2.735l6.119-6.119 2.676 2.676a1.168 1.168 0 001.65 0l.584-.584a1.314 1.314 0 011.85 0 1.307 1.307 0 010 1.852l-.583.583a1.167 1.167 0 000 1.65L54.01 72.266a9.42 9.42 0 1013.38-13.26l-.06-.06-13.92-13.923a1.167 1.167 0 00-1.65 0l-.584.583a1.313 1.313 0 01-1.85 0 1.307 1.307 0 01-.003-1.848l.002-.002.584-.584a1.167 1.167 0 000-1.65l-2.676-2.676 6.119-6.12c.9.187 1.815.282 2.734.285zm4.585 39.68a7.092 7.092 0 01-2.482-.453l9.115-9.114a7.077 7.077 0 01-6.633 9.567zM47.45 42.36a3.642 3.642 0 005.135 5.128L65.68 60.596c.143.142.276.293.404.445l-9.978 9.979a6.812 6.812 0 01-.446-.404L42.553 57.508a3.642 3.642 0 00-5.135-5.129l-1.867-1.867 10.03-10.015 1.868 1.862zm4.712-11.737l-26.474 26.47c-.29.29-.408.71-.309 1.108 1.602 6.288-2.198 12.683-8.486 14.284-6.288 1.601-12.683-2.198-14.284-8.487-1.601-6.288 2.198-12.683 8.487-14.284a11.756 11.756 0 015.797 0 1.18 1.18 0 001.109-.308l26.468-26.47c.29-.29.407-.71.307-1.108-1.59-6.215 2.159-12.541 8.373-14.132 1.174-.3 2.389-.415 3.599-.34l-6.156 6.159a1.166 1.166 0 00-.283 1.194l2.334 7.002c.117.348.39.622.739.738l7.003 2.334c.418.14.88.03 1.193-.282l6.156-6.156c.014.223.021.443.021.663.033 6.412-5.138 11.637-11.551 11.67-.992.005-1.98-.117-2.94-.363a1.169 1.169 0 00-1.109.307h.006z"/><path d="M60.413 63.697l-1.65 1.65-11.67-11.67 1.65-1.65 11.67 11.67z"/></g><defs><clipPath id="clip0"><path fill="#fff" transform="translate(0 5)" d="M0 0h70v70H0z"/></clipPath></defs></svg>