<svg width="24" height="25" fill="none" xmlns="http://www.w3.org/2000/svg"><path d="M15.684.5H8.316C1.594.5 0 2.094 0 8.816v7.367C0 22.906 1.594 24.5 8.316 24.5h7.367c6.723 0 8.317-1.594 8.317-8.317V8.816C24 2.094 22.39.5 15.684.5zm3.69 17.12h-1.741c-.66 0-.863-.523-2.05-1.726-1.032-1-1.489-1.132-1.743-1.132-.36 0-.461.1-.461.593v1.575c0 .422-.133.675-1.25.675-1.848 0-3.899-1.117-5.336-3.199C4.624 11.356 4.03 9.07 4.03 8.597c0-.254.101-.491.59-.491h1.746c.441 0 .61.203.781.675.863 2.492 2.301 4.676 2.894 4.676.22 0 .32-.102.32-.66v-2.574c-.066-1.188-.691-1.29-.691-1.711 0-.203.168-.406.437-.406h2.746c.371 0 .508.203.508.64v3.472c0 .375.168.508.269.508.219 0 .406-.133.812-.54 1.254-1.405 2.153-3.573 2.153-3.573.116-.255.32-.492.762-.492h1.745c.524 0 .64.269.524.644-.22 1.015-2.356 4.03-2.356 4.03-.184.305-.254.438 0 .778.188.254.797.781 1.203 1.254.746.847 1.32 1.558 1.473 2.05.172.489-.082.743-.574.743h.002z" fill="#D3D3D3"/></svg>