<svg width="61" height="44" fill="none" xmlns="http://www.w3.org/2000/svg"><path fill="#535554" d="M0 .001h61v44H0z"/><g clip-path="url(#clip0)"><path d="M47.656 10.001h-22.29c-.392 0-.753.219-.932.569-.183.354-.15.78.082 1.105l8.166 11.502.008.012c.297.4.457.886.458 1.384v9.379a1.042 1.042 0 001.454.967l4.589-1.75c.411-.125.684-.513.684-.98v-7.616c0-.498.161-.983.458-1.384l.008-.012 8.166-11.503a1.06 1.06 0 00.082-1.104c-.18-.35-.54-.57-.933-.569zM39.31 22.437a3.613 3.613 0 00-.705 2.136v7.461l-4.188 1.597v-9.058a3.61 3.61 0 00-.704-2.136L25.785 11.27h21.452L39.31 22.437z" fill="#fff"/></g><defs><clipPath id="clip0"><path fill="#fff" transform="translate(24 10.001)" d="M0 0h25v25H0z"/></clipPath></defs></svg>