<svg width="30" height="30" fill="none" xmlns="http://www.w3.org/2000/svg"><path d="M27.632 19.753c-1.851 0-3.664-.29-5.383-.858-.838-.289-1.789-.066-2.342.496l-3.405 2.572c-3.907-2.084-6.408-4.584-8.467-8.465l2.503-3.325a2.39 2.39 0 00.586-2.416 17.172 17.172 0 01-.86-5.389A2.371 2.371 0 007.893 0H2.369A2.371 2.371 0 000 2.368C0 17.604 12.396 30 27.632 30A2.371 2.371 0 0030 27.632v-5.51a2.371 2.371 0 00-2.368-2.37zm.79 7.879a.79.79 0 01-.79.79c-14.366 0-26.053-11.688-26.053-26.054a.79.79 0 01.79-.79h5.526a.79.79 0 01.79.79c0 2.017.315 3.997.934 5.874.092.295.017.6-.272.9l-2.873 3.805a.79.79 0 00-.073.834c2.342 4.6 5.185 7.445 9.818 9.818.267.139.594.11.835-.073l3.888-2.946a.792.792 0 01.803-.188 18.73 18.73 0 005.887.94.79.79 0 01.79.79v5.51z" fill="#FCB427"/></svg>