<svg width="30" height="23" fill="none" xmlns="http://www.w3.org/2000/svg"><path d="M27.5 0h-25C1.121 0 0 1.134 0 2.528v17.694c0 1.394 1.121 2.528 2.5 2.528h25c1.379 0 2.5-1.134 2.5-2.528V2.528C30 1.134 28.879 0 27.5 0zm-25 1.264h25c.092 0 .173.034.26.053-2.165 2.003-9.341 8.641-11.853 10.93-.197.178-.513.392-.907.392s-.71-.214-.908-.393C11.582 9.958 4.404 3.319 2.24 1.317c.087-.02.168-.053.26-.053zM1.25 20.222V2.528c0-.124.037-.236.07-.35a5110.82 5110.82 0 009.911 9.151c-3.236 2.811-8.245 7.613-9.915 9.223-.03-.108-.066-.213-.066-.33zm26.25 1.264h-25c-.1 0-.189-.035-.282-.058 1.726-1.663 6.766-6.492 9.946-9.242l1.092.998c.515.47 1.118.719 1.744.719.626 0 1.23-.248 1.744-.718l1.092-1c3.18 2.75 8.22 7.58 9.946 9.243-.093.023-.182.058-.282.058zm1.25-1.264c0 .117-.037.222-.066.33-1.67-1.611-6.679-6.412-9.915-9.223a5112.46 5112.46 0 009.911-9.15c.033.113.07.225.07.349v17.694z" fill="#FCB427"/></svg>