<svg width="24" height="25" fill="none" xmlns="http://www.w3.org/2000/svg"><path d="M12 2C6.202 2 1.5 6.702 1.5 12.5S6.202 23 12 23s10.5-4.702 10.5-10.5S17.798 2 12 2zm5.046 7.915c.007.11.007.225.007.337 0 3.441-2.62 7.404-7.408 7.404a7.383 7.383 0 01-3.999-1.167c.211.023.413.033.628.033 1.219 0 2.34-.413 3.232-1.111a2.604 2.604 0 01-2.433-1.805c.401.059.762.059 1.175-.047a2.602 2.602 0 01-2.084-2.554v-.033c.345.194.75.314 1.174.33a2.604 2.604 0 01-.806-3.478 7.39 7.39 0 005.367 2.721c-.368-1.77.954-3.201 2.543-3.201a2.6 2.6 0 011.901.82c.588-.11 1.15-.33 1.652-.626a2.59 2.59 0 01-1.143 1.432 5.148 5.148 0 001.5-.405c-.354.52-.797.982-1.306 1.35z" fill="#D3D3D3"/></svg>