<svg width="30" height="30" fill="none" xmlns="http://www.w3.org/2000/svg"><path d="M15.098 6.575a3.84 3.84 0 00-3.835 3.835 3.84 3.84 0 003.835 3.835 3.84 3.84 0 003.835-3.835 3.84 3.84 0 00-3.835-3.835zm0 6.574a2.743 2.743 0 01-2.74-2.74c0-1.51 1.23-2.739 2.74-2.739 1.51 0 2.74 1.23 2.74 2.74 0 1.51-1.23 2.74-2.74 2.74z" fill="#FCB427"/><path d="M22.43 3.077A10.438 10.438 0 0015.001 0a10.437 10.437 0 00-7.43 3.077C3.9 6.75 3.444 13.658 6.584 17.844L15.001 30l8.405-12.14c3.153-4.202 2.697-11.11-.976-14.783zm.087 14.143l-7.516 10.855-7.528-10.872c-2.849-3.798-2.44-10.037.874-13.35a9.349 9.349 0 016.654-2.757 9.35 9.35 0 016.655 2.756c3.314 3.314 3.722 9.553.861 13.368z" fill="#FCB427"/></svg>