<svg width="80" height="75" fill="none" xmlns="http://www.w3.org/2000/svg"><circle cx="54" cy="26" r="26" fill="#FFEFC7"/><path d="M51.776 50.352l-2.741-.587-.01-.004-6.576-1.406c.044-.322.068-.647.07-.972v-3.054a13.954 13.954 0 006.442-11.75V30.09h1.503a.955.955 0 00.957-.957v-3.282a.955.955 0 00-.957-.957h-.691a14.74 14.74 0 00-11.355-14.168V8.555a.96.96 0 00-.957-.957h-4.922a.957.957 0 00-.957.957v2.172a14.74 14.74 0 00-11.356 14.168h-.69a.955.955 0 00-.957.957v3.282a.955.955 0 00.957.957h1.502v2.488a13.954 13.954 0 006.442 11.75v3.054c.002.325.026.65.07.972l-6.576 1.406h-.007l-2.743.587a7.556 7.556 0 00-5.953 7.354v13.743a.957.957 0 00.957.957h43.543a.957.957 0 00.957-.957V57.702a7.555 7.555 0 00-5.952-7.35zM47.86 24.895h-4.52V19.29a.957.957 0 00-1.914 0v5.605h-3.007V12.687a12.84 12.84 0 019.44 12.208zM33.496 9.512h3.008v15.383h-3.008V9.512zm-1.914 3.176v12.207h-3.008V19.29a.957.957 0 10-1.914 0v5.605h-4.52a12.839 12.839 0 019.442-12.207zm-11.09 14.121h29.015v1.368H20.493v-1.368zm2.462 5.77V30.09h24.093v2.488a12.048 12.048 0 01-24.095 0h.002zM35 46.535c1.93.002 3.839-.398 5.605-1.176v2.024a5.606 5.606 0 01-11.21 0v-2.024A13.889 13.889 0 0035 46.535zM14.185 57.702a5.633 5.633 0 014.44-5.479l1.593-.341v18.606h-6.033V57.702zm7.947-6.23l5.906-1.264a7.532 7.532 0 006.007 4.627v15.653H22.132V51.472zm13.825 19.016V54.834a7.531 7.531 0 006.007-4.626l5.906 1.264v19.016H35.957zm19.857 0h-6.032V51.883l1.593.34a5.633 5.633 0 014.439 5.48v12.785z" fill="#2D2D2D"/><path d="M53.49 60.813a.955.955 0 00-.957.957v3.42a.957.957 0 101.914 0v-3.42a.957.957 0 00-.957-.957zm-22.941-2.176h-4.922a.957.957 0 100 1.914h4.922a.958.958 0 000-1.914z" fill="#2D2D2D"/></svg>