<svg width="523" height="72" fill="none" xmlns="http://www.w3.org/2000/svg"><path d="M1.3 1V0h-1v1h1zm16.2 0h1V0h-1v1zm0 56.8h-1v1h1v-1zm35.1 0h1v-1h-1v1zm0 13.2v1h1v-1h-1zM1.3 71h-1v1h1v-1zm0-69h16.2V0H1.3v2zm15.2-1v56.8h2V1h-2zm1 57.8h35.1v-2H17.5v2zm34.1-1V71h2V57.8h-2zm1 12.2H1.3v2h51.3v-2zM2.3 71V1h-2v70h2zM61.652 1V0h-1v1h1zm16.2 0h1V0h-1v1zm0 70v1h1v-1h-1zm-16.2 0h-1v1h1v-1zm0-69h16.2V0h-16.2v2zm15.2-1v70h2V1h-2zm1 69h-16.2v2h16.2v-2zm-15.2 1V1h-2v70h2zm86.012-13h1v-1h-1v1zm0 13v1h1v-1h-1zm-54.2 0h-1v1h1v-1zm0-70V0h-1v1h1zm52.9 0h1V0h-1v1zm0 13v1h1v-1h-1zm-36.8 0v-1h-1v1h1zm0 15.2h-1v1h1v-1zm32.5 0h1v-1h-1v1zm0 12.6v1h1v-1h-1zm-32.5 0v-1h-1v1h1zm0 16.2h-1v1h1v-1zm37.1 0v13h2V58h-2zm1 12h-54.2v2h54.2v-2zm-53.2 1V1h-2v70h2zm-1-69h52.9V0h-52.9v2zm51.9-1v13h2V1h-2zm1 12h-36.8v2h36.8v-2zm-37.8 1v15.2h2V14h-2zm1 16.2h32.5v-2h-32.5v2zm31.5-1v12.6h2V29.2h-2zm1 11.6h-32.5v2h32.5v-2zm-33.5 1V58h2V41.8h-2zm1 17.2h38.1v-2h-38.1v2zm102.39-24.4l-.463-.886-2.131 1.114 2.292.725.302-.953zm9.4 6.4l-.798.603.007.008.791-.611zm-3.8 25.1l.568.823.002-.002-.57-.821zm-57 4.9h-1v1h1v-1zm0-70V0h-1v1h1zm53.8 4.9l-.585.811.006.004.579-.815zm4.4 22.4l-.848-.53-.005.008-.005.008.858.514zm-42.1-15.1v-1h-1v1h1zm0 16.5h-1v1h1v-1zm25.2-14.4l-.561.828.009.006.01.006.542-.84zm3.3 41.4l-.537-.844-.012.008.549.836zm-28.5-15.2v-1h-1v1h1zm0 17.3h-1v1h1v-1zm34.998-23.247c3.826 1.212 6.777 3.234 8.904 6.05l1.596-1.206c-2.406-3.184-5.722-5.429-9.896-6.75l-.604 1.906zm8.911 6.058c2.109 2.73 3.191 6.138 3.191 10.289h2c0-4.516-1.185-8.374-3.609-11.511l-1.582 1.222zm3.191 10.289c0 5.825-2.255 10.243-6.77 13.379l1.14 1.642c5.085-3.53 7.63-8.58 7.63-15.021h-2zm-6.768 13.377C213.492 68.379 206.794 70 197.754 70v2c9.226 0 16.396-1.645 21.368-5.077l-1.136-1.646zM197.754 70h-36.2v2h36.2v-2zm-35.2 1V1h-2v70h2zm-1-69h34.2V0h-34.2v2zm34.2 0c8.427 0 14.721 1.617 19.015 4.711l1.17-1.622C211.167 1.65 204.393 0 195.754 0v2zm19.021 4.715c4.338 3.081 6.479 7.212 6.479 12.485h2c0-5.927-2.459-10.663-7.321-14.115l-1.158 1.63zm6.479 12.485c0 3.228-.789 6.075-2.348 8.57l1.696 1.06c1.774-2.838 2.652-6.058 2.652-9.63h-2zm-2.358 8.585c-1.499 2.5-3.624 4.475-6.405 5.929l.926 1.772c3.086-1.613 5.494-3.837 7.194-6.671l-1.715-1.03zM176.654 13.2v16.5h2V13.2h-2zm1 17.5h16.1v-2h-16.1v2zm16.1 0c4.09 0 7.356-.71 9.661-2.272l-1.122-1.656c-1.829 1.239-4.629 1.928-8.539 1.928v2zm9.661-2.272c2.37-1.606 3.539-4 3.539-7.028h-2c0 2.439-.898 4.178-2.661 5.372l1.122 1.656zm3.539-7.028c0-3.028-1.17-5.4-3.558-6.94l-1.084 1.68c1.745 1.126 2.642 2.822 2.642 5.26h2zm-3.539-6.928c-2.305-1.561-5.571-2.272-9.661-2.272v2c3.91 0 6.71.69 8.539 1.928l1.122-1.656zm-9.661-2.272h-16.1v2h16.1v-2zm2.8 47.6c4.344 0 7.776-.707 10.149-2.264l-1.098-1.672c-1.894 1.243-4.862 1.936-9.051 1.936v2zm10.137-2.256c2.528-1.61 3.763-4.12 3.763-7.344h-2c0 2.642-.966 4.465-2.837 5.656l1.074 1.688zm3.763-7.344c0-3.186-1.204-5.694-3.666-7.354-2.392-1.613-5.853-2.346-10.234-2.346v2c4.219 0 7.207.717 9.116 2.004 1.838 1.24 2.784 3.082 2.784 5.696h2zm-13.9-9.7h-18.9v2h18.9v-2zm-19.9 1v17.3h2V41.5h-2zm1 18.3h18.9v-2h-18.9v2zM302.219 1h1V0h-1v1zm0 70v1h1v-1h-1zm-16.2 0h-1v1h1v-1zm0-28.7h1v-1h-1v1zm-31.8 0v-1h-1v1h1zm0 28.7v1h1v-1h-1zm-16.2 0h-1v1h1v-1zm0-70V0h-1v1h1zm16.2 0h1V0h-1v1zm0 27.6h-1v1h1v-1zm31.8 0v1h1v-1h-1zm0-27.6V0h-1v1h1zm15.2 0v70h2V1h-2zm1 69h-16.2v2h16.2v-2zm-15.2 1V42.3h-2V71h2zm-1-29.7h-31.8v2h31.8v-2zm-32.8 1V71h2V42.3h-2zm1 27.7h-16.2v2h16.2v-2zm-15.2 1V1h-2v70h2zm-1-69h16.2V0h-16.2v2zm15.2-1v27.6h2V1h-2zm1 28.6h31.8v-2h-31.8v2zm32.8-1V1h-2v27.6h2zm-1-26.6h16.2V0h-16.2v2zm86.961 56h1v-1h-1v1zm0 13v1h1v-1h-1zm-54.2 0h-1v1h1v-1zm0-70V0h-1v1h1zm52.9 0h1V0h-1v1zm0 13v1h1v-1h-1zm-36.8 0v-1h-1v1h1zm0 15.2h-1v1h1v-1zm32.5 0h1v-1h-1v1zm0 12.6v1h1v-1h-1zm-32.5 0v-1h-1v1h1zm0 16.2h-1v1h1v-1zm37.1 0v13h2V58h-2zm1 12h-54.2v2h54.2v-2zm-53.2 1V1h-2v70h2zm-1-69h52.9V0h-52.9v2zm51.9-1v13h2V1h-2zm1 12h-36.8v2h36.8v-2zm-37.8 1v15.2h2V14h-2zm1 16.2h32.5v-2h-32.5v2zm31.5-1v12.6h2V29.2h-2zm1 11.6h-32.5v2h32.5v-2zm-33.5 1V58h2V41.8h-2zm1 17.2h38.1v-2h-38.1v2zm95.59 12l-.822.57.298.43h.524v-1zm-13.5-19.5l.823-.57-.299-.43h-.524v1zm-14.9 0v-1h-1v1h1zm0 19.5v1h1v-1h-1zm-16.2 0h-1v1h1v-1zm0-70V0h-1v1h1zm46.4 3.1l-.415.91.006.002.409-.912zm10.5 35.8l-.832-.555-.002.004.834.551zm-10.6 8.6l-.398-.917-1.121.487.699 1.002.82-.572zm15.7 22.5v1h1.917l-1.097-1.572-.82.572zm-21.5-53.6l-.644.765.006.005.006.005.632-.775zm-24.3-3.2v-1h-1v1h1zm0 24.4h-1v1h1v-1zm24.3-3.2l.644.765-.644-.765zm4.923 35.03l-13.5-19.5-1.645 1.14 13.5 19.5 1.645-1.14zM416.97 50.5h-.8v2h.8v-2zm-.8 0h-14.1v2h14.1v-2zm-15.1 1V71h2V51.5h-2zm1 18.5h-16.2v2h16.2v-2zm-15.2 1V1h-2v70h2zm-1-69h30.3V0h-30.3v2zm30.3 0c6.091 0 11.31 1.015 15.685 3.01l.83-1.82C427.994 1.051 422.479 0 416.17 0v2zm15.691 3.012c4.445 1.997 7.82 4.812 10.171 8.433l1.677-1.09c-2.583-3.979-6.274-7.03-11.029-9.167l-.819 1.824zm10.171 8.433c2.346 3.614 3.538 7.919 3.538 12.955h2c0-5.364-1.274-10.06-3.861-14.044l-1.677 1.088zM445.57 26.4c0 5.03-1.223 9.332-3.632 12.945l1.664 1.11c2.658-3.987 3.968-8.686 3.968-14.055h-2zm-3.634 12.949c-2.347 3.553-5.72 6.302-10.164 8.234l.797 1.834c4.755-2.068 8.45-5.052 11.036-8.966l-1.669-1.102zm-10.586 9.723l15.7 22.5 1.64-1.144-15.7-22.5-1.64 1.144zM447.87 70h-17.4v2h17.4v-2zm-16.7-43.6c0-4.166-1.354-7.48-4.168-9.775l-1.264 1.55c2.253 1.838 3.432 4.525 3.432 8.225h2zm-4.156-9.765c-2.781-2.342-6.749-3.435-11.744-3.435v2c4.739 0 8.171 1.04 10.456 2.965l1.288-1.53zM415.27 13.2h-13.2v2h13.2v-2zm-14.2 1v24.4h2V14.2h-2zm1 25.4h13.2v-2h-13.2v2zm13.2 0c4.995 0 8.963-1.093 11.744-3.435l-1.288-1.53c-2.285 1.924-5.717 2.965-10.456 2.965v2zm11.744-3.435c2.798-2.356 4.156-5.658 4.156-9.765h-2c0 3.627-1.175 6.325-3.444 8.235l1.288 1.53zM504.005 71l-.822.57.299.43h.523v-1zm-13.5-19.5l.823-.57-.299-.43h-.524v1zm-14.9 0v-1h-1v1h1zm0 19.5v1h1v-1h-1zm-16.2 0h-1v1h1v-1zm0-70V0h-1v1h1zm46.4 3.1l-.414.91.005.002.409-.912zm10.5 35.8l-.832-.555-.002.004.834.551zm-10.6 8.6l-.398-.917-1.121.487.699 1.002.82-.572zm15.7 22.5v1h1.918l-1.097-1.572-.821.572zm-21.5-53.6l-.644.765.006.005.006.005.632-.775zm-24.3-3.2v-1h-1v1h1zm0 24.4h-1v1h1v-1zm24.3-3.2l.645.765-.645-.765zm4.923 35.03l-13.5-19.5-1.645 1.14 13.5 19.5 1.645-1.14zM490.505 50.5h-.8v2h.8v-2zm-.8 0h-14.1v2h14.1v-2zm-15.1 1V71h2V51.5h-2zm1 18.5h-16.2v2h16.2v-2zm-15.2 1V1h-2v70h2zm-1-69h30.3V0h-30.3v2zm30.3 0c6.091 0 11.31 1.015 15.686 3.01l.829-1.82C501.529 1.051 496.015 0 489.705 0v2zm15.691 3.012c4.445 1.997 7.82 4.812 10.171 8.433l1.677-1.09c-2.583-3.979-6.274-7.03-11.029-9.167l-.819 1.824zm10.171 8.433c2.346 3.614 3.538 7.919 3.538 12.955h2c0-5.364-1.274-10.06-3.861-14.044l-1.677 1.088zm3.538 12.955c0 5.03-1.222 9.332-3.632 12.945l1.665 1.11c2.657-3.987 3.967-8.686 3.967-14.055h-2zm-3.634 12.949c-2.347 3.553-5.72 6.302-10.164 8.234l.797 1.834c4.756-2.068 8.45-5.052 11.036-8.966l-1.669-1.102zm-10.586 9.723l15.7 22.5 1.641-1.144-15.7-22.5-1.641 1.144zM521.405 70h-17.4v2h17.4v-2zm-16.7-43.6c0-4.166-1.354-7.48-4.167-9.775l-1.265 1.55c2.253 1.838 3.432 4.525 3.432 8.225h2zm-4.155-9.765c-2.782-2.342-6.75-3.435-11.745-3.435v2c4.739 0 8.171 1.04 10.456 2.965l1.289-1.53zM488.805 13.2h-13.2v2h13.2v-2zm-14.2 1v24.4h2V14.2h-2zm1 25.4h13.2v-2h-13.2v2zm13.2 0c4.995 0 8.963-1.093 11.745-3.435l-1.289-1.53c-2.285 1.924-5.717 2.965-10.456 2.965v2zm11.745-3.435c2.797-2.356 4.155-5.658 4.155-9.765h-2c0 3.627-1.175 6.325-3.444 8.235l1.289 1.53z" fill="#fff" fill-opacity=".3"/></svg>