<svg width="1600" height="47" fill="none" xmlns="http://www.w3.org/2000/svg"><path fill="#FCD127" d="M4 0h1600v47H4z"/><g opacity=".1"><mask id="a" style="mask-type:alpha" maskUnits="userSpaceOnUse" x="-208" y="0" width="1881" height="48"><path d="M1672 47V0H-208v47h1880z" fill="#000" fill-opacity=".7"/></mask><g mask="url(#a)"><path fill-rule="evenodd" clip-rule="evenodd" d="M329.331-438.186v62.185h87.827L964.354 313.65v1.665l136.916 172.56H964.109v-63.429h-87.666l-547.196-689.65v-.22L192.171-438.186h137.16zm-497.786 800.245l-137.16-172.867v172.867h137.16zm292.928 0l-430.088-541.853V41.598l254.427 320.664h175.661v-.203zm-225.07-800.245l429.844 541.748v.22l254.428 320.664h175.661v-.202L329.491-117.302v-.219L75.064-438.186h-175.661zm-205.018 0v110.797l547.196 689.651h87.666v61.982h137.16L329.491 251.685v-.22l-547.196-689.651h-87.91zM964.193-312.37v-63.631h-137.16l137.076 172.762v1.666l547.201 689.65h87.91V377.28l-547.2-689.65h-87.827zm.161 258.7L1394.2 487.874v.202h-175.66L964.109 167.413v-1.666L534.265-376.001h175.661L964.354-55.337v1.666zm634.706-85.832V-312.37H1461.9l137.16 172.868zm.16 369.188L1169.13-312.37h175.66L1599.22 8.294v221.392z" fill="#1F1E1E"/></g></g></svg>