<svg width="1600" height="43" fill="none" xmlns="http://www.w3.org/2000/svg"><mask id="a" style="mask-type:alpha" maskUnits="userSpaceOnUse" x="-208" y="0" width="1881" height="43"><path d="M1672 43V0H-208v43h1880z" fill="#000" fill-opacity=".25"/></mask><g mask="url(#a)"><path fill-rule="evenodd" clip-rule="evenodd" d="M329.331-400.891v56.893h87.827l547.196 630.953v1.524l136.916 157.873H964.109v-58.03h-87.666L329.247-242.631v-.202L192.171-400.891h137.16zm-497.786 732.136l-137.16-158.155v158.155h137.16zm292.928 0l-430.088-495.736V38.058L-51.188 331.43h175.661v-.185zm-225.07-732.136l429.844 495.64v.201l254.428 293.372h175.661v-.185L329.491-107.317v-.201L75.064-400.891h-175.661zm-205.018 0v101.367L241.581 331.43h87.666v56.707h137.16L329.491 230.264v-.201l-547.196-630.954h-87.91zM964.193-285.783v-58.215h-137.16L964.109-185.94v1.524l547.201 630.953h87.91V345.17l-547.2-630.953h-87.827zm.161 236.68L1394.2 446.353v.185h-175.66L964.109 153.165v-1.524L534.265-343.998h175.661L964.354-50.626v1.524zm634.706-78.526v-158.154H1461.9l137.16 158.154zm.16 337.767l-430.09-495.921h175.66L1599.22 7.589v202.549z" fill="#595959"/></g></svg>