<svg width="113" height="112" fill="none" xmlns="http://www.w3.org/2000/svg"><circle cx="56.998" cy="56.001" r="38.154" fill="#fff" fill-opacity=".5"/><path d="M56.998 94.08c-21.056 0-38.08-17.023-38.08-38.08 0-21.055 17.024-38.08 38.08-38.08 21.056 0 38.08 17.025 38.08 38.08 0 21.057-17.024 38.08-38.08 38.08zm0-71.68c-18.592 0-33.6 15.009-33.6 33.6 0 18.593 15.008 33.6 33.6 33.6 18.592 0 33.6-15.007 33.6-33.6 0-18.591-15.008-33.6-33.6-33.6z" fill="#C4C4C4"/><path d="M45.798 75.49V36.512L79.398 56l-33.6 19.488zm4.48-31.36v23.52l20.16-11.873-20.16-11.648z" fill="#C4C4C4"/></svg>