<svg width="24" height="25" fill="none" xmlns="http://www.w3.org/2000/svg"><path d="M1.902 16.848V14L0 8.898h.957l1.398 3.938 1.614-4.762h.879l-2.07 5.957v2.818l-.876-.001zm5.637 0h-.734a2.85 2.85 0 01-.075-.447h-.054c-.246.313-.564.525-1.056.525-.797 0-1.343-.602-1.343-1.703 0-1.2.614-1.957 2.183-1.957h.121v-.332c0-.736-.246-1.047-.734-1.047-.446 0-.825.233-1.114.488l-.168-.766c.258-.21.77-.445 1.336-.445.993 0 1.536.422 1.536 1.781v2.634c0 .534.054 1.004.097 1.27l.005-.001zm-.953-2.922h-.102c-1.082 0-1.312.476-1.312 1.199 0 .645.21 1.066.652 1.066.3 0 .602-.199.758-.445l.004-1.82zm2.801 2.922H8.52v-5.621h.867v.492h.054c.157-.211.579-.555 1.102-.555.734 0 1.121.41 1.121 1.266v4.418h-.879v-4.34c0-.423-.187-.57-.523-.57-.364 0-.672.28-.875.557v4.353zm3.136-2.59c0-2.082.777-3.094 1.899-3.094.269 0 .546.09.714.211V8.898h.867v7.95h-.645l-.07-.447h-.054c-.242.313-.554.525-1.011.525-1.102 0-1.7-.934-1.7-2.668zm2.614-2.117a.85.85 0 00-.657-.267c-.699 0-1.035 1.06-1.035 2.203 0 1.313.246 2.113.883 2.113.434 0 .664-.21.81-.433v-3.616zm3.605 4.785c-1.156 0-1.872-.922-1.872-2.645 0-1.804.5-3.117 1.692-3.117.933 0 1.543.699 1.543 2.606v.476h-2.332c0 1.27.356 1.934 1.047 1.934.489 0 .848-.219 1.067-.375l.203.664a2.13 2.13 0 01-1.348.457zm-.957-3.395h1.434c0-.957-.157-1.656-.657-1.656-.531 0-.718.656-.781 1.656h.004zm6.094-2.289l-1.043 2.625L24 16.85h-.898l-.872-2.313-.843 2.313h-.856l1.168-2.904-1.058-2.703h.902l.727 2.035.765-2.035h.844z" fill="#D3D3D3"/></svg>