<svg width="19" height="11" fill="none" xmlns="http://www.w3.org/2000/svg"><path d="M6.286 9.729a.73.73 0 01.23-.53.806.806 0 01.555-.218h4.715c.208 0 .408.078.555.219.148.14.23.33.23.529a.73.73 0 01-.23.53.806.806 0 01-.555.218H7.07a.806.806 0 01-.555-.219.73.73 0 01-.23-.53zm-3.143-4.49a.73.73 0 01.23-.53.806.806 0 01.556-.219h11c.208 0 .408.08.555.22.148.14.23.33.23.529a.73.73 0 01-.23.529.806.806 0 01-.555.219h-11a.806.806 0 01-.556-.22.73.73 0 01-.23-.528zM0 .749a.73.73 0 01.23-.53A.806.806 0 01.786 0H18.07c.209 0 .409.079.556.22.147.14.23.33.23.528a.731.731 0 01-.23.53.806.806 0 01-.556.219H.786a.806.806 0 01-.556-.22A.73.73 0 010 .749z" fill="#535554"/></svg>